<svg xmlns="http://www.w3.org/2000/svg" xmlns:xlink="http://www.w3.org/1999/xlink" width="150" zoomAndPan="magnify" viewBox="0 0 112.5 37.5" height="50" preserveAspectRatio="xMidYMid meet" version="1.0"><defs><g/><clipPath id="id1"><path d="M 43.132812 0 L 53 0 L 53 9 L 43.132812 9 Z M 43.132812 0 " clip-rule="nonzero"/></clipPath><clipPath id="id2"><path d="M 60 0 L 69.894531 0 L 69.894531 9 L 60 9 Z M 60 0 " clip-rule="nonzero"/></clipPath></defs><path fill="rgb(94.119263%, 87.449646%, 78.42865%)" d="M 52.714844 11.082031 L 55.855469 12.375 C 55.894531 13.894531 55.792969 14.878906 55.542969 15.34375 L 56.515625 16.304688 L 57.488281 15.34375 C 57.238281 14.878906 57.132812 13.878906 57.171875 12.375 L 60.3125 11.082031 L 60.285156 12.789062 L 60.851562 12.789062 C 61.785156 12.390625 60.851562 12.789062 58.066406 14 L 58.011719 19.847656 C 58.683594 20.140625 59.601562 19.367188 60.785156 17.542969 C 59.917969 15.398438 60.117188 14.09375 61.402344 13.628906 C 61.589844 12.46875 61.640625 10.921875 61.5625 8.964844 C 60.917969 8.085938 59.972656 7.449219 58.695312 7.074219 C 59.667969 7.207031 60.46875 7.554688 61.113281 8.113281 C 60.117188 6.34375 58.578125 5.4375 56.5 5.382812 C 54.425781 5.421875 52.886719 6.34375 51.886719 8.113281 C 52.519531 7.554688 53.332031 7.207031 54.304688 7.074219 C 53.03125 7.449219 52.085938 8.085938 51.441406 8.964844 C 51.359375 10.910156 51.414062 12.46875 51.597656 13.628906 C 52.886719 14.09375 53.097656 15.398438 52.214844 17.542969 C 53.398438 19.367188 54.320312 20.140625 54.988281 19.847656 L 54.9375 14 C 52.148438 12.789062 51.214844 12.390625 52.148438 12.789062 L 52.714844 12.789062 L 52.6875 11.082031 Z M 55.238281 1.347656 L 55.671875 5.035156 L 57.328125 5.035156 L 57.761719 1.347656 L 57.132812 1.347656 L 56.921875 1.988281 L 56.882812 1.347656 L 56.09375 1.347656 L 56.054688 1.988281 L 55.84375 1.347656 L 55.210938 1.347656 Z M 55.238281 1.347656 " fill-opacity="1" fill-rule="evenodd"/><path fill="rgb(94.119263%, 87.449646%, 78.42865%)" d="M 55.226562 13.746094 C 55.238281 13.585938 55.253906 13.414062 55.265625 13.226562 L 55.265625 12.507812 L 53.214844 11.644531 L 53.242188 12.867188 C 53.53125 13 54.015625 13.226562 54.515625 13.441406 L 55.226562 13.734375 Z M 55.226562 13.746094 " fill-opacity="1" fill-rule="evenodd"/><path fill="rgb(94.119263%, 87.449646%, 78.42865%)" d="M 57.800781 13.746094 C 57.789062 13.585938 57.777344 13.414062 57.761719 13.226562 L 57.761719 12.507812 L 59.8125 11.644531 L 59.789062 12.867188 C 59.496094 13 59.011719 13.226562 58.511719 13.441406 L 57.800781 13.734375 Z M 57.800781 13.746094 " fill-opacity="1" fill-rule="evenodd"/><g clip-path="url(#id1)"><path fill="rgb(88.238525%, 39.608765%, 22.349548%)" d="M 50.941406 8.417969 L 51.070312 8.195312 L 50.113281 7.300781 L 50.847656 6.449219 L 51.691406 7.167969 C 51.808594 6.996094 51.941406 6.835938 52.070312 6.675781 L 51.519531 6.195312 L 52.019531 5.621094 C 52.097656 5.53125 52.148438 5.398438 52.136719 5.277344 C 52.125 5.144531 52.070312 5.023438 51.980469 4.945312 L 51.175781 4.238281 C 51.019531 4.105469 50.808594 4.078125 50.625 4.183594 L 49.601562 4.757812 L 46.390625 1.90625 C 46.417969 1.402344 46.222656 0.90625 45.839844 0.574219 C 45.539062 0.308594 45.171875 0.164062 44.761719 0.164062 C 44.289062 0.164062 43.84375 0.363281 43.539062 0.722656 C 43.25 1.054688 43.105469 1.480469 43.144531 1.921875 C 43.171875 2.359375 43.367188 2.757812 43.699219 3.050781 C 44.078125 3.386719 44.589844 3.53125 45.078125 3.4375 L 48.285156 6.289062 L 47.851562 7.394531 C 47.773438 7.582031 47.824219 7.808594 47.984375 7.941406 L 48.785156 8.644531 C 48.875 8.726562 49.007812 8.78125 49.125 8.765625 C 49.257812 8.753906 49.375 8.699219 49.457031 8.605469 L 49.953125 8.035156 L 50.757812 8.765625 L 50.925781 8.460938 Z M 50.21875 6.621094 L 49.230469 5.742188 L 50.796875 4.878906 L 51.320312 5.328125 L 50.21875 6.609375 Z M 44.066406 1.160156 Z M 44.078125 1.148438 Z M 44.105469 1.121094 Z M 44.117188 1.109375 Z M 44.183594 1.054688 Z M 44.433594 0.921875 Z M 44.617188 0.867188 Z M 44.789062 0.855469 Z M 44.828125 0.855469 Z M 45.144531 0.921875 Z M 45.355469 1.054688 Z M 45.394531 1.09375 Z M 45.40625 1.109375 Z M 45.589844 1.386719 Z M 45.644531 1.535156 Z M 48.890625 5.4375 L 44.050781 1.148438 L 44.117188 1.148438 L 44.183594 1.082031 L 44.195312 1.066406 L 44.210938 1.054688 L 44.25 1.015625 L 44.261719 1 L 44.277344 0.988281 L 44.289062 0.976562 L 44.300781 0.960938 L 44.316406 0.949219 L 44.328125 0.933594 L 44.367188 0.894531 L 44.382812 0.882812 L 44.394531 0.867188 L 44.40625 0.855469 L 45.050781 0.855469 L 45.078125 0.867188 L 45.105469 0.882812 L 45.128906 0.894531 L 45.15625 0.90625 L 45.183594 0.921875 L 45.210938 0.933594 L 45.234375 0.949219 L 45.261719 0.960938 L 45.289062 0.976562 L 45.316406 0.988281 L 45.339844 1 L 45.367188 1.015625 L 45.394531 1.027344 L 45.40625 1.042969 L 45.417969 1.054688 L 45.433594 1.066406 L 45.445312 1.082031 L 45.460938 1.09375 L 45.472656 1.109375 L 45.484375 1.121094 L 45.5 1.132812 L 45.523438 1.1875 L 45.539062 1.214844 L 45.5625 1.269531 L 45.578125 1.292969 L 45.589844 1.320312 L 45.605469 1.347656 L 45.628906 1.402344 L 45.644531 1.425781 L 45.667969 1.480469 L 45.683594 1.507812 L 45.707031 1.5625 L 45.707031 1.773438 C 45.707031 1.789062 45.707031 1.789062 45.707031 1.800781 L 45.707031 1.988281 L 45.695312 2.011719 L 45.683594 2.039062 L 45.667969 2.066406 L 45.644531 2.121094 L 49.191406 5.25 L 48.917969 5.421875 Z M 48.890625 5.4375 " fill-opacity="1" fill-rule="evenodd"/></g><path fill="rgb(88.238525%, 39.608765%, 22.349548%)" d="M 50.625 7.007812 L 51.375 7.660156 C 51.453125 7.539062 51.519531 7.421875 51.597656 7.300781 C 51.152344 6.914062 50.886719 6.703125 50.886719 6.703125 Z M 50.625 7.007812 " fill-opacity="1" fill-rule="evenodd"/><g clip-path="url(#id2)"><path fill="rgb(88.238525%, 39.608765%, 22.349548%)" d="M 62.179688 6.648438 L 62.914062 7.5 L 62.035156 8.328125 L 62.167969 8.566406 L 62.335938 8.871094 L 63.058594 8.207031 L 63.558594 8.78125 C 63.636719 8.871094 63.757812 8.9375 63.886719 8.9375 C 64.019531 8.953125 64.136719 8.898438 64.230469 8.820312 L 65.03125 8.113281 C 65.191406 7.980469 65.242188 7.765625 65.164062 7.566406 L 64.730469 6.460938 L 67.9375 3.613281 C 68.421875 3.703125 68.9375 3.570312 69.316406 3.226562 C 69.644531 2.933594 69.84375 2.53125 69.871094 2.09375 C 69.894531 1.652344 69.75 1.226562 69.476562 0.894531 C 69.171875 0.535156 68.726562 0.335938 68.253906 0.335938 C 67.859375 0.335938 67.476562 0.480469 67.175781 0.75 C 66.792969 1.082031 66.597656 1.574219 66.621094 2.082031 L 63.414062 4.929688 L 62.390625 4.359375 C 62.21875 4.265625 61.996094 4.277344 61.835938 4.410156 L 61.035156 5.117188 C 60.945312 5.195312 60.878906 5.316406 60.878906 5.449219 C 60.863281 5.582031 60.917969 5.703125 60.996094 5.796875 L 61.496094 6.367188 L 61.035156 6.753906 C 61.167969 6.914062 61.285156 7.074219 61.402344 7.261719 L 62.152344 6.621094 Z M 63.796875 5.957031 L 62.808594 6.835938 L 61.707031 5.554688 L 62.230469 5.105469 L 63.796875 5.96875 Z M 67.371094 1.746094 Z M 67.425781 1.601562 Z M 67.609375 1.320312 Z M 67.621094 1.308594 Z M 67.660156 1.269531 Z M 67.871094 1.132812 Z M 68.1875 1.066406 Z M 68.226562 1.066406 Z M 68.398438 1.082031 Z M 68.582031 1.132812 Z M 68.832031 1.269531 Z M 68.898438 1.320312 Z M 68.910156 1.335938 Z M 68.9375 1.359375 Z M 68.949219 1.375 L 64.113281 5.664062 L 63.835938 5.488281 L 67.386719 2.359375 L 67.371094 2.332031 L 67.359375 2.304688 L 67.34375 2.28125 L 67.320312 2.226562 L 67.320312 2.039062 C 67.320312 2.027344 67.320312 2.027344 67.320312 2.011719 L 67.320312 1.800781 L 67.34375 1.746094 L 67.359375 1.71875 L 67.371094 1.695312 L 67.386719 1.667969 L 67.410156 1.613281 L 67.425781 1.585938 L 67.4375 1.5625 L 67.449219 1.535156 L 67.464844 1.507812 L 67.488281 1.453125 L 67.503906 1.425781 L 67.515625 1.402344 L 67.53125 1.375 L 67.542969 1.359375 L 67.554688 1.347656 L 67.570312 1.335938 L 67.582031 1.320312 L 67.632812 1.269531 L 67.660156 1.253906 L 67.6875 1.242188 L 67.714844 1.226562 L 67.738281 1.214844 L 67.765625 1.203125 L 67.792969 1.1875 L 67.820312 1.175781 L 67.84375 1.160156 L 67.871094 1.148438 L 67.898438 1.132812 L 67.925781 1.121094 L 67.949219 1.109375 L 67.976562 1.09375 L 68.609375 1.09375 L 68.621094 1.109375 L 68.632812 1.121094 L 68.648438 1.132812 L 68.660156 1.148438 L 68.699219 1.1875 L 68.710938 1.203125 L 68.726562 1.214844 L 68.765625 1.253906 L 68.777344 1.269531 L 68.792969 1.28125 L 68.804688 1.292969 L 68.816406 1.308594 L 68.832031 1.320312 L 68.84375 1.335938 L 68.855469 1.347656 L 68.871094 1.359375 L 68.882812 1.375 L 68.898438 1.386719 L 68.960938 1.386719 Z M 63.453125 5.691406 Z M 63.453125 5.691406 " fill-opacity="1" fill-rule="evenodd"/></g><path fill="rgb(88.238525%, 39.608765%, 22.349548%)" d="M 62.402344 7.207031 L 62.140625 6.902344 C 62.140625 6.902344 61.917969 7.089844 61.523438 7.433594 C 61.589844 7.539062 61.667969 7.660156 61.734375 7.78125 L 61.746094 7.808594 L 62.417969 7.222656 Z M 62.402344 7.207031 " fill-opacity="1" fill-rule="evenodd"/><path fill="rgb(88.238525%, 39.608765%, 22.349548%)" d="M 65.625 18.703125 C 64.980469 17.835938 64.230469 17.050781 63.414062 16.359375 L 61.257812 14.519531 C 61.21875 14.546875 61.195312 14.585938 61.167969 14.625 C 61.074219 14.757812 61.007812 14.917969 60.984375 15.105469 L 63.019531 16.851562 C 63.808594 17.515625 64.519531 18.277344 65.136719 19.101562 L 67.136719 21.765625 L 64.269531 20.101562 C 63.375 19.582031 62.546875 18.96875 61.796875 18.277344 L 61.417969 17.914062 L 61.390625 17.957031 C 61.296875 18.101562 61.195312 18.261719 61.074219 18.433594 L 61.390625 18.742188 C 62.179688 19.472656 63.046875 20.113281 63.980469 20.644531 L 67.4375 22.644531 C 67.632812 22.765625 67.882812 22.710938 68.042969 22.539062 C 68.1875 22.363281 68.199219 22.109375 68.070312 21.925781 L 65.648438 18.714844 Z M 65.625 18.703125 " fill-opacity="1" fill-rule="evenodd"/><path fill="rgb(88.238525%, 39.608765%, 22.349548%)" d="M 66.425781 21.125 C 66.425781 21.125 64.546875 18.5 63.78125 17.742188 C 63.453125 17.421875 63.21875 17.195312 60.957031 15.277344 C 60.945312 15.613281 61.007812 15.984375 61.101562 16.332031 Z M 66.425781 21.125 " fill-opacity="1" fill-rule="evenodd"/><path fill="rgb(88.238525%, 39.608765%, 22.349548%)" d="M 46.601562 21.324219 L 51.847656 16.597656 C 51.953125 16.238281 52.058594 15.839844 52.070312 15.480469 C 49.824219 17.394531 49.574219 17.621094 49.246094 17.941406 C 48.484375 18.703125 46.601562 21.324219 46.601562 21.324219 Z M 46.601562 21.324219 " fill-opacity="1" fill-rule="evenodd"/><path fill="rgb(88.238525%, 39.608765%, 22.349548%)" d="M 47.890625 19.289062 C 48.507812 18.460938 49.21875 17.703125 50.007812 17.035156 L 52.058594 15.277344 C 52.042969 15.027344 51.992188 14.800781 51.859375 14.625 L 49.601562 16.558594 C 48.785156 17.25 48.035156 18.035156 47.390625 18.902344 L 44.972656 22.109375 C 44.839844 22.296875 44.839844 22.550781 45 22.722656 C 45.144531 22.898438 45.40625 22.9375 45.605469 22.832031 L 49.0625 20.832031 C 49.992188 20.300781 50.863281 19.648438 51.652344 18.929688 L 52.042969 18.527344 C 51.914062 18.34375 51.808594 18.167969 51.703125 18.023438 L 51.230469 18.460938 C 50.480469 19.167969 49.640625 19.78125 48.757812 20.285156 L 45.894531 21.953125 Z M 47.890625 19.289062 " fill-opacity="1" fill-rule="evenodd"/><g fill="rgb(94.119263%, 87.449646%, 78.42865%)" fill-opacity="1"><g transform="translate(39.821849, 31.654301)"><g><path d="M 2.125 -2.359375 L 2.125 0 L 0.640625 0 L 0.640625 -6.0625 L 3.046875 -6.0625 C 3.742188 -6.0625 4.285156 -5.878906 4.671875 -5.515625 C 5.066406 -5.160156 5.265625 -4.722656 5.265625 -4.203125 C 5.265625 -3.859375 5.15625 -3.515625 4.9375 -3.171875 C 4.726562 -2.835938 4.382812 -2.601562 3.90625 -2.46875 L 5.390625 0 L 3.65625 0 L 2.296875 -2.359375 Z M 2.125 -4.9375 L 2.125 -3.484375 L 3.046875 -3.484375 C 3.265625 -3.484375 3.4375 -3.546875 3.5625 -3.671875 C 3.695312 -3.804688 3.765625 -3.984375 3.765625 -4.203125 C 3.765625 -4.421875 3.695312 -4.597656 3.5625 -4.734375 C 3.4375 -4.867188 3.265625 -4.9375 3.046875 -4.9375 Z M 2.125 -4.9375 "/></g></g></g><g fill="rgb(94.119263%, 87.449646%, 78.42865%)" fill-opacity="1"><g transform="translate(46.399691, 31.654301)"><g><path d="M 0.625 -2.4375 L 0.625 -6.0625 L 2.09375 -6.0625 L 2.09375 -2.4375 C 2.09375 -2.082031 2.179688 -1.804688 2.359375 -1.609375 C 2.546875 -1.410156 2.8125 -1.3125 3.15625 -1.3125 C 3.5 -1.3125 3.757812 -1.410156 3.9375 -1.609375 C 4.125 -1.804688 4.21875 -2.082031 4.21875 -2.4375 L 4.21875 -6.0625 L 5.703125 -6.0625 L 5.703125 -2.4375 C 5.703125 -1.90625 5.578125 -1.441406 5.328125 -1.046875 C 5.078125 -0.660156 4.757812 -0.378906 4.375 -0.203125 C 3.988281 -0.0234375 3.570312 0.0625 3.125 0.0625 C 2.425781 0.0625 1.832031 -0.15625 1.34375 -0.59375 C 0.863281 -1.03125 0.625 -1.644531 0.625 -2.4375 Z M 0.625 -2.4375 "/></g></g></g><g fill="rgb(94.119263%, 87.449646%, 78.42865%)" fill-opacity="1"><g transform="translate(53.522056, 31.654301)"><g><path d="M 2.125 -1.125 L 2.78125 -1.125 C 3.34375 -1.125 3.785156 -1.296875 4.109375 -1.640625 C 4.429688 -1.984375 4.59375 -2.445312 4.59375 -3.03125 C 4.59375 -3.613281 4.429688 -4.078125 4.109375 -4.421875 C 3.785156 -4.765625 3.34375 -4.9375 2.78125 -4.9375 L 2.125 -4.9375 Z M 2.78125 -6.0625 C 3.75 -6.0625 4.539062 -5.78125 5.15625 -5.21875 C 5.78125 -4.65625 6.09375 -3.925781 6.09375 -3.03125 C 6.09375 -2.132812 5.78125 -1.40625 5.15625 -0.84375 C 4.539062 -0.28125 3.75 0 2.78125 0 L 0.640625 0 L 0.640625 -6.0625 Z M 2.78125 -6.0625 "/></g></g></g><g fill="rgb(94.119263%, 87.449646%, 78.42865%)" fill-opacity="1"><g transform="translate(60.713569, 31.654301)"><g><path d="M 2.125 -2.359375 L 2.125 0 L 0.640625 0 L 0.640625 -6.0625 L 3.046875 -6.0625 C 3.742188 -6.0625 4.285156 -5.878906 4.671875 -5.515625 C 5.066406 -5.160156 5.265625 -4.722656 5.265625 -4.203125 C 5.265625 -3.859375 5.15625 -3.515625 4.9375 -3.171875 C 4.726562 -2.835938 4.382812 -2.601562 3.90625 -2.46875 L 5.390625 0 L 3.65625 0 L 2.296875 -2.359375 Z M 2.125 -4.9375 L 2.125 -3.484375 L 3.046875 -3.484375 C 3.265625 -3.484375 3.4375 -3.546875 3.5625 -3.671875 C 3.695312 -3.804688 3.765625 -3.984375 3.765625 -4.203125 C 3.765625 -4.421875 3.695312 -4.597656 3.5625 -4.734375 C 3.4375 -4.867188 3.265625 -4.9375 3.046875 -4.9375 Z M 2.125 -4.9375 "/></g></g></g><g fill="rgb(94.119263%, 87.449646%, 78.42865%)" fill-opacity="1"><g transform="translate(67.291411, 31.654301)"><g><path d="M 4.5 0 L 4.171875 -1.015625 L 1.984375 -1.015625 L 1.65625 0 L 0.078125 0 L 2.1875 -6.078125 L 3.984375 -6.078125 L 6.078125 0 Z M 2.359375 -2.140625 L 3.796875 -2.140625 L 3.078125 -4.296875 Z M 2.359375 -2.140625 "/></g></g></g><g fill="rgb(88.238525%, 39.608765%, 22.349548%)" fill-opacity="1"><g transform="translate(43.729263, 36.484943)"><g><path d="M 0.0625 -1.34375 L 0.0625 -1.65625 L 1.375 -1.65625 L 1.375 -1.34375 L 0.921875 -1.34375 L 0.921875 0 L 0.515625 0 L 0.515625 -1.34375 Z M 0.0625 -1.34375 "/></g></g></g><g fill="rgb(88.238525%, 39.608765%, 22.349548%)" fill-opacity="1"><g transform="translate(45.160887, 36.484943)"><g><path d="M 1.21875 -1.65625 L 1.625 -1.65625 L 1.625 0 L 1.21875 0 L 1.21875 -0.6875 L 0.578125 -0.6875 L 0.578125 0 L 0.171875 0 L 0.171875 -1.65625 L 0.578125 -1.65625 L 0.578125 -1 L 1.21875 -1 Z M 1.21875 -1.65625 "/></g></g></g><g fill="rgb(88.238525%, 39.608765%, 22.349548%)" fill-opacity="1"><g transform="translate(46.95748, 36.484943)"><g><path d="M 1.1875 -1.65625 L 1.1875 -1.359375 L 0.578125 -1.359375 L 0.578125 -1 L 1.109375 -1 L 1.109375 -0.6875 L 0.578125 -0.6875 L 0.578125 -0.3125 L 1.1875 -0.3125 L 1.1875 0 L 0.171875 0 L 0.171875 -1.65625 Z M 1.1875 -1.65625 "/></g></g></g><g fill="rgb(88.238525%, 39.608765%, 22.349548%)" fill-opacity="1"><g transform="translate(48.304337, 36.484943)"><g/></g></g><g fill="rgb(88.238525%, 39.608765%, 22.349548%)" fill-opacity="1"><g transform="translate(49.01073, 36.484943)"><g><path d="M 1.234375 0 L 1.140625 -0.28125 L 0.546875 -0.28125 L 0.453125 0 L 0.015625 0 L 0.59375 -1.65625 L 1.09375 -1.65625 L 1.65625 0 Z M 0.640625 -0.578125 L 1.03125 -0.578125 L 0.84375 -1.171875 Z M 0.640625 -0.578125 "/></g></g></g><g fill="rgb(88.238525%, 39.608765%, 22.349548%)" fill-opacity="1"><g transform="translate(50.689591, 36.484943)"><g><path d="M 1.25 -1.65625 L 1.65625 -1.65625 L 1.65625 0 L 1.25 0 L 0.578125 -1.046875 L 0.578125 0 L 0.171875 0 L 0.171875 -1.65625 L 0.578125 -1.65625 L 1.25 -0.609375 Z M 1.25 -1.65625 "/></g></g></g><g fill="rgb(88.238525%, 39.608765%, 22.349548%)" fill-opacity="1"><g transform="translate(52.521503, 36.484943)"><g><path d="M 0.328125 -0.21875 C 0.160156 -0.382812 0.078125 -0.585938 0.078125 -0.828125 C 0.078125 -1.078125 0.160156 -1.28125 0.328125 -1.4375 C 0.492188 -1.601562 0.691406 -1.6875 0.921875 -1.6875 C 1.109375 -1.6875 1.273438 -1.632812 1.421875 -1.53125 C 1.566406 -1.4375 1.664062 -1.300781 1.71875 -1.125 L 1.234375 -1.125 C 1.171875 -1.25 1.070312 -1.3125 0.9375 -1.3125 C 0.800781 -1.3125 0.691406 -1.265625 0.609375 -1.171875 C 0.523438 -1.085938 0.484375 -0.972656 0.484375 -0.828125 C 0.484375 -0.679688 0.523438 -0.566406 0.609375 -0.484375 C 0.691406 -0.398438 0.800781 -0.359375 0.9375 -0.359375 C 1.070312 -0.359375 1.171875 -0.414062 1.234375 -0.53125 L 1.71875 -0.53125 C 1.664062 -0.363281 1.566406 -0.226562 1.421875 -0.125 C 1.273438 -0.03125 1.109375 0.015625 0.921875 0.015625 C 0.691406 0.015625 0.492188 -0.0625 0.328125 -0.21875 Z M 0.328125 -0.21875 "/></g></g></g><g fill="rgb(88.238525%, 39.608765%, 22.349548%)" fill-opacity="1"><g transform="translate(54.320451, 36.484943)"><g><path d="M 0.171875 0 L 0.171875 -1.65625 L 0.578125 -1.65625 L 0.578125 0 Z M 0.171875 0 "/></g></g></g><g fill="rgb(88.238525%, 39.608765%, 22.349548%)" fill-opacity="1"><g transform="translate(55.076293, 36.484943)"><g><path d="M 1.1875 -1.65625 L 1.1875 -1.359375 L 0.578125 -1.359375 L 0.578125 -1 L 1.109375 -1 L 1.109375 -0.6875 L 0.578125 -0.6875 L 0.578125 -0.3125 L 1.1875 -0.3125 L 1.1875 0 L 0.171875 0 L 0.171875 -1.65625 Z M 1.1875 -1.65625 "/></g></g></g><g fill="rgb(88.238525%, 39.608765%, 22.349548%)" fill-opacity="1"><g transform="translate(56.42315, 36.484943)"><g><path d="M 1.25 -1.65625 L 1.65625 -1.65625 L 1.65625 0 L 1.25 0 L 0.578125 -1.046875 L 0.578125 0 L 0.171875 0 L 0.171875 -1.65625 L 0.578125 -1.65625 L 1.25 -0.609375 Z M 1.25 -1.65625 "/></g></g></g><g fill="rgb(88.238525%, 39.608765%, 22.349548%)" fill-opacity="1"><g transform="translate(58.255061, 36.484943)"><g><path d="M 0.0625 -1.34375 L 0.0625 -1.65625 L 1.375 -1.65625 L 1.375 -1.34375 L 0.921875 -1.34375 L 0.921875 0 L 0.515625 0 L 0.515625 -1.34375 Z M 0.0625 -1.34375 "/></g></g></g><g fill="rgb(88.238525%, 39.608765%, 22.349548%)" fill-opacity="1"><g transform="translate(59.686686, 36.484943)"><g/></g></g><g fill="rgb(88.238525%, 39.608765%, 22.349548%)" fill-opacity="1"><g transform="translate(60.393079, 36.484943)"><g><path d="M 0.734375 -1.359375 C 0.679688 -1.359375 0.640625 -1.34375 0.609375 -1.3125 C 0.578125 -1.289062 0.5625 -1.253906 0.5625 -1.203125 C 0.5625 -1.148438 0.578125 -1.109375 0.609375 -1.078125 C 0.640625 -1.046875 0.675781 -1.019531 0.71875 -1 C 0.769531 -0.988281 0.828125 -0.972656 0.890625 -0.953125 C 0.953125 -0.941406 1.007812 -0.925781 1.0625 -0.90625 C 1.125 -0.882812 1.175781 -0.859375 1.21875 -0.828125 C 1.269531 -0.796875 1.3125 -0.75 1.34375 -0.6875 C 1.375 -0.632812 1.390625 -0.570312 1.390625 -0.5 C 1.390625 -0.351562 1.332031 -0.226562 1.21875 -0.125 C 1.101562 -0.03125 0.953125 0.015625 0.765625 0.015625 C 0.578125 0.015625 0.425781 -0.0234375 0.3125 -0.109375 C 0.195312 -0.203125 0.140625 -0.332031 0.140625 -0.5 L 0.578125 -0.5 C 0.585938 -0.363281 0.65625 -0.296875 0.78125 -0.296875 C 0.832031 -0.296875 0.875 -0.3125 0.90625 -0.34375 C 0.9375 -0.375 0.953125 -0.410156 0.953125 -0.453125 C 0.953125 -0.503906 0.9375 -0.546875 0.90625 -0.578125 C 0.882812 -0.609375 0.847656 -0.628906 0.796875 -0.640625 C 0.753906 -0.660156 0.703125 -0.675781 0.640625 -0.6875 C 0.578125 -0.707031 0.515625 -0.726562 0.453125 -0.75 C 0.398438 -0.769531 0.347656 -0.796875 0.296875 -0.828125 C 0.253906 -0.859375 0.21875 -0.898438 0.1875 -0.953125 C 0.15625 -1.015625 0.140625 -1.085938 0.140625 -1.171875 C 0.140625 -1.328125 0.195312 -1.453125 0.3125 -1.546875 C 0.425781 -1.640625 0.570312 -1.6875 0.75 -1.6875 C 0.925781 -1.6875 1.070312 -1.644531 1.1875 -1.5625 C 1.300781 -1.476562 1.359375 -1.347656 1.359375 -1.171875 L 0.921875 -1.171875 C 0.910156 -1.234375 0.890625 -1.28125 0.859375 -1.3125 C 0.828125 -1.34375 0.785156 -1.359375 0.734375 -1.359375 Z M 0.734375 -1.359375 "/></g></g></g><g fill="rgb(88.238525%, 39.608765%, 22.349548%)" fill-opacity="1"><g transform="translate(61.916534, 36.484943)"><g><path d="M 2.015625 -1.65625 L 2.453125 -1.65625 L 1.984375 0 L 1.53125 0 L 1.234375 -1.046875 L 0.953125 0 L 0.484375 0 L 0.015625 -1.65625 L 0.453125 -1.65625 L 0.734375 -0.46875 L 1.03125 -1.65625 L 1.484375 -1.65625 L 1.765625 -0.484375 Z M 2.015625 -1.65625 "/></g></g></g><g fill="rgb(88.238525%, 39.608765%, 22.349548%)" fill-opacity="1"><g transform="translate(64.377136, 36.484943)"><g><path d="M 1.234375 -0.484375 C 1.316406 -0.566406 1.359375 -0.679688 1.359375 -0.828125 C 1.359375 -0.972656 1.316406 -1.085938 1.234375 -1.171875 C 1.160156 -1.265625 1.054688 -1.3125 0.921875 -1.3125 C 0.796875 -1.3125 0.691406 -1.265625 0.609375 -1.171875 C 0.523438 -1.085938 0.484375 -0.972656 0.484375 -0.828125 C 0.484375 -0.679688 0.523438 -0.566406 0.609375 -0.484375 C 0.691406 -0.398438 0.796875 -0.359375 0.921875 -0.359375 C 1.054688 -0.359375 1.160156 -0.398438 1.234375 -0.484375 Z M 0.328125 -0.21875 C 0.160156 -0.382812 0.078125 -0.585938 0.078125 -0.828125 C 0.078125 -1.078125 0.160156 -1.28125 0.328125 -1.4375 C 0.492188 -1.601562 0.691406 -1.6875 0.921875 -1.6875 C 1.160156 -1.6875 1.363281 -1.601562 1.53125 -1.4375 C 1.695312 -1.28125 1.78125 -1.078125 1.78125 -0.828125 C 1.78125 -0.585938 1.695312 -0.382812 1.53125 -0.21875 C 1.363281 -0.0625 1.160156 0.015625 0.921875 0.015625 C 0.691406 0.015625 0.492188 -0.0625 0.328125 -0.21875 Z M 0.328125 -0.21875 "/></g></g></g><g fill="rgb(88.238525%, 39.608765%, 22.349548%)" fill-opacity="1"><g transform="translate(66.232595, 36.484943)"><g><path d="M 0.578125 -0.640625 L 0.578125 0 L 0.171875 0 L 0.171875 -1.65625 L 0.828125 -1.65625 C 1.023438 -1.65625 1.175781 -1.601562 1.28125 -1.5 C 1.382812 -1.40625 1.4375 -1.289062 1.4375 -1.15625 C 1.4375 -1.050781 1.40625 -0.953125 1.34375 -0.859375 C 1.289062 -0.773438 1.195312 -0.710938 1.0625 -0.671875 L 1.46875 0 L 1 0 L 0.625 -0.640625 Z M 0.578125 -1.34375 L 0.578125 -0.953125 L 0.828125 -0.953125 C 0.890625 -0.953125 0.9375 -0.96875 0.96875 -1 C 1.007812 -1.039062 1.03125 -1.085938 1.03125 -1.140625 C 1.03125 -1.203125 1.007812 -1.25 0.96875 -1.28125 C 0.9375 -1.320312 0.890625 -1.34375 0.828125 -1.34375 Z M 0.578125 -1.34375 "/></g></g></g><g fill="rgb(88.238525%, 39.608765%, 22.349548%)" fill-opacity="1"><g transform="translate(67.805497, 36.484943)"><g><path d="M 0.578125 -0.3125 L 0.765625 -0.3125 C 0.910156 -0.3125 1.023438 -0.359375 1.109375 -0.453125 C 1.203125 -0.546875 1.25 -0.671875 1.25 -0.828125 C 1.25 -0.984375 1.203125 -1.109375 1.109375 -1.203125 C 1.023438 -1.296875 0.910156 -1.34375 0.765625 -1.34375 L 0.578125 -1.34375 Z M 0.765625 -1.65625 C 1.023438 -1.65625 1.238281 -1.578125 1.40625 -1.421875 C 1.582031 -1.273438 1.671875 -1.078125 1.671875 -0.828125 C 1.671875 -0.585938 1.582031 -0.390625 1.40625 -0.234375 C 1.238281 -0.078125 1.023438 0 0.765625 0 L 0.171875 0 L 0.171875 -1.65625 Z M 0.765625 -1.65625 "/></g></g></g></svg>